<mxfile modified="2024-02-04T00:31:34.143Z" host="Electron" agent="5.0 (Windows NT 10.0; Win64; x64) AppleWebKit/537.36 (KHTML, like Gecko) draw.io/20.8.16 Chrome/106.0.5249.199 Electron/21.4.0 Safari/537.36" etag="gSFVWhup0Xya6g1KufFJ" compressed="false" version="20.8.16" type="device">
  <diagram id="7jLlEumUiMLtJq0d6O2o" name="View">
    <mxGraphModel dx="1036" dy="623" grid="1" gridSize="10" guides="1" tooltips="1" connect="1" arrows="1" fold="1" page="1" pageScale="1" pageWidth="827" pageHeight="1169" math="0" shadow="0">
      <root>
        <mxCell id="R8PEM5ubBwQ5RRjLXsm--0" />
        <mxCell id="R8PEM5ubBwQ5RRjLXsm--1" parent="R8PEM5ubBwQ5RRjLXsm--0" />
        <mxCell id="Bb3ik_aOIdPs3Mw46473-32" value="Business&lt;br&gt;Requirements&lt;br&gt;&lt;font style=&quot;font-size: 8px;&quot;&gt;&lt;i&gt;(Why &amp;amp; Value)&lt;/i&gt;&lt;/font&gt;" style="rounded=0;whiteSpace=wrap;html=1;fillColor=#f5f5f5;fontColor=#333333;strokeColor=#666666;" parent="R8PEM5ubBwQ5RRjLXsm--1" vertex="1">
          <mxGeometry x="40" y="290" width="80" height="40" as="geometry" />
        </mxCell>
        <mxCell id="Bb3ik_aOIdPs3Mw46473-33" value="aligned to" style="edgeStyle=orthogonalEdgeStyle;rounded=0;orthogonalLoop=1;jettySize=auto;html=1;entryX=1;entryY=0.5;entryDx=0;entryDy=0;horizontal=0;" parent="R8PEM5ubBwQ5RRjLXsm--1" source="Bb3ik_aOIdPs3Mw46473-34" target="Bb3ik_aOIdPs3Mw46473-32" edge="1">
          <mxGeometry relative="1" as="geometry" />
        </mxCell>
        <mxCell id="Bb3ik_aOIdPs3Mw46473-34" value="Stakeholders&lt;br&gt;Requirements&lt;br&gt;&lt;font style=&quot;font-size: 8px;&quot;&gt;&lt;i&gt;(and System Users)&lt;/i&gt;&lt;/font&gt;" style="rounded=0;whiteSpace=wrap;html=1;fillColor=#f5f5f5;fontColor=#333333;strokeColor=#666666;" parent="R8PEM5ubBwQ5RRjLXsm--1" vertex="1">
          <mxGeometry x="160" y="290" width="80" height="40" as="geometry" />
        </mxCell>
        <mxCell id="Bb3ik_aOIdPs3Mw46473-35" value="Solution" style="rounded=1;whiteSpace=wrap;html=1;arcSize=8;absoluteArcSize=1;container=1;collapsible=0;recursiveResize=0;dashed=1;align=left;verticalAlign=top;" parent="R8PEM5ubBwQ5RRjLXsm--1" vertex="1">
          <mxGeometry x="290" y="240" width="350" height="140" as="geometry" />
        </mxCell>
        <mxCell id="Bb3ik_aOIdPs3Mw46473-36" value="System" style="rounded=1;whiteSpace=wrap;html=1;arcSize=8;absoluteArcSize=1;container=1;collapsible=0;recursiveResize=0;dashed=1;align=left;verticalAlign=top;" parent="Bb3ik_aOIdPs3Mw46473-35" vertex="1">
          <mxGeometry x="9" y="20" width="331" height="110" as="geometry" />
        </mxCell>
        <mxCell id="Bb3ik_aOIdPs3Mw46473-37" value="Functional&lt;br&gt;Requirements" style="rounded=0;whiteSpace=wrap;html=1;fillColor=#f5f5f5;fontColor=#333333;strokeColor=#666666;" parent="Bb3ik_aOIdPs3Mw46473-36" vertex="1">
          <mxGeometry x="9" y="20" width="80" height="40" as="geometry" />
        </mxCell>
        <mxCell id="Bb3ik_aOIdPs3Mw46473-38" value="Non-Functional Requirements" style="rounded=0;whiteSpace=wrap;html=1;align=left;verticalAlign=top;container=1;collapsible=0;recursiveResize=0;fillColor=#f5f5f5;fontColor=#333333;strokeColor=#666666;" parent="Bb3ik_aOIdPs3Mw46473-36" vertex="1">
          <mxGeometry x="103" y="20" width="220" height="80" as="geometry" />
        </mxCell>
        <mxCell id="Bb3ik_aOIdPs3Mw46473-40" value="Qualitative&lt;br&gt;&lt;font style=&quot;font-size: 8px;&quot;&gt;(targets)&lt;/font&gt;" style="rounded=0;whiteSpace=wrap;html=1;dashed=1;" parent="Bb3ik_aOIdPs3Mw46473-38" vertex="1">
          <mxGeometry x="8.75" y="30" width="80" height="40" as="geometry" />
        </mxCell>
        <mxCell id="Bb3ik_aOIdPs3Mw46473-39" value="Quantitative&lt;br&gt;&lt;i&gt;&lt;font style=&quot;font-size: 8px;&quot;&gt;(constraints)&lt;/font&gt;&lt;/i&gt;" style="rounded=0;whiteSpace=wrap;html=1;dashed=1;" parent="Bb3ik_aOIdPs3Mw46473-38" vertex="1">
          <mxGeometry x="131.25" y="30" width="80" height="40" as="geometry" />
        </mxCell>
        <mxCell id="Bb3ik_aOIdPs3Mw46473-43" value="referencing" style="edgeStyle=orthogonalEdgeStyle;rounded=0;orthogonalLoop=1;jettySize=auto;html=1;entryX=1;entryY=0.5;entryDx=0;entryDy=0;fontSize=8;horizontal=0;" parent="Bb3ik_aOIdPs3Mw46473-38" source="Bb3ik_aOIdPs3Mw46473-39" target="Bb3ik_aOIdPs3Mw46473-40" edge="1">
          <mxGeometry relative="1" as="geometry" />
        </mxCell>
        <mxCell id="Bb3ik_aOIdPs3Mw46473-42" value="supporting" style="edgeStyle=orthogonalEdgeStyle;rounded=0;orthogonalLoop=1;jettySize=auto;html=1;horizontal=0;exitX=0;exitY=0.5;exitDx=0;exitDy=0;" parent="R8PEM5ubBwQ5RRjLXsm--1" source="Bb3ik_aOIdPs3Mw46473-35" target="Bb3ik_aOIdPs3Mw46473-34" edge="1">
          <mxGeometry relative="1" as="geometry" />
        </mxCell>
        <mxCell id="qyG0mkK-_tc5QcbyG11I-0" value="Transitional Requirements" style="rounded=0;whiteSpace=wrap;html=1;arcSize=8;absoluteArcSize=1;container=1;collapsible=0;recursiveResize=0;align=left;verticalAlign=top;fillColor=#f5f5f5;fontColor=#333333;strokeColor=#666666;" vertex="1" parent="R8PEM5ubBwQ5RRjLXsm--1">
          <mxGeometry x="37" y="150" width="602" height="80" as="geometry" />
        </mxCell>
        <mxCell id="qyG0mkK-_tc5QcbyG11I-1" value="Supplier Responsible" style="rounded=0;whiteSpace=wrap;html=1;dashed=1;" vertex="1" parent="qyG0mkK-_tc5QcbyG11I-0">
          <mxGeometry x="270" y="50" width="321" height="20" as="geometry" />
        </mxCell>
        <mxCell id="qyG0mkK-_tc5QcbyG11I-8" value="&lt;i style=&quot;border-color: var(--border-color); color: rgb(0, 0, 0); font-family: Helvetica; font-variant-ligatures: normal; font-variant-caps: normal; font-weight: 400; letter-spacing: normal; orphans: 2; text-align: center; text-indent: 0px; text-transform: none; widows: 2; word-spacing: 0px; -webkit-text-stroke-width: 0px; background-color: rgb(251, 251, 251); text-decoration-thickness: initial; text-decoration-style: initial; text-decoration-color: initial; font-size: 8px;&quot;&gt;(Delivery &amp;amp; Change)&lt;/i&gt;" style="text;html=1;strokeColor=none;fillColor=none;align=center;verticalAlign=middle;whiteSpace=wrap;rounded=0;" vertex="1" parent="qyG0mkK-_tc5QcbyG11I-0">
          <mxGeometry x="12" y="55" width="80" height="10" as="geometry" />
        </mxCell>
        <mxCell id="qyG0mkK-_tc5QcbyG11I-7" value="Sponsor Responsible" style="rounded=0;whiteSpace=wrap;html=1;dashed=1;" vertex="1" parent="R8PEM5ubBwQ5RRjLXsm--1">
          <mxGeometry x="50" y="170" width="579" height="20" as="geometry" />
        </mxCell>
      </root>
    </mxGraphModel>
  </diagram>
</mxfile>
